<svg xmlns="http://www.w3.org/2000/svg" preserveAspectRatio="xMidYMid slice" version="1.1" viewBox="0 0 590 430"><defs><marker id="TriangleInM" orient="auto" overflow="visible"><path fill-rule="evenodd" stroke="#000" stroke-width="1pt" d="m5.77 0-8.65 5v-10l8.65 5z" transform="scale(-.4)"/></marker><marker id="TriangleOutM" orient="auto" overflow="visible"><path fill-rule="evenodd" stroke="#000" stroke-width="1pt" d="m5.77 0-8.65 5v-10l8.65 5z" transform="scale(.4)"/></marker></defs><metadata/><g transform="translate(-243.46 -391.52)"><path fill="none" stroke="#000" stroke-width="1.661" marker-start="url(#TriangleInM)" d="m302.94 743.4h-22.651v51.394"/><path fill="none" stroke="#000" stroke-width="1.661" marker-end="url(#TriangleOutM)" d="m474.87 745.96h21.522v48.84"/><text x="269.155" y="814.409" fill="#000" font-family="'Liberation Sans'" letter-spacing="0" word-spacing="0" style="line-height:0%" xml:space="preserve"><tspan x="269.155" y="814.409" font-size="16.611" style="line-height:1.25">sdi</tspan></text><text x="481.291" y="814.409" fill="#000" font-family="'Liberation Sans'" letter-spacing="0" word-spacing="0" style="line-height:0%" xml:space="preserve"><tspan x="481.291" y="814.409" font-size="16.611" style="line-height:1.25">sdo</tspan></text><g transform="matrix(1.6611 0 0 1.6611 -164.25 -225.71)"><rect width="95.039" height="18" x="286.31" y="573.7" fill="none" stroke="#2e3436" stroke-linecap="square" stroke-linejoin="round" stroke-width="2"/><text x="291.524" y="585.289" fill="#000" font-family="'Liberation Sans'" letter-spacing="0" word-spacing="0" style="line-height:0%" xml:space="preserve"><tspan x="291.524" y="585.289" font-size="10" style="line-height:1.25">Data Shift Register</tspan></text></g><g><text x="264.927" y="403.629" fill="#000" font-family="'Liberation Sans'" letter-spacing="0" word-spacing="0" style="line-height:0%" transform="matrix(1.6611 0 0 1.6611 -136.25 -262.12)" xml:space="preserve"><tspan x="264.927" y="403.629" font-size="10" style="line-height:1.25">SDI</tspan></text><path fill="none" stroke="#000" stroke-width="1" marker-end="url(#TriangleOutM)" d="m273.03 591.14v-183.07" transform="matrix(1.6611 0 0 1.6611 -136.25 -262.12)"/><g><path fill="none" stroke="#000" stroke-width="1" d="m272.23 532.13 6.1607 6.1607" transform="matrix(1.6611 0 0 1.6611 -136.25 -262.12) translate(-2.2781 -51.385)"/><path fill="none" stroke="#000" stroke-width="1" d="m272.23 534.13 6.1607 6.1607" transform="matrix(1.6611 0 0 1.6611 -136.25 -262.12) translate(-2.2781 -51.385)"/></g></g><g><text x="282.725" y="403.629" fill="#000" font-family="'Liberation Sans'" letter-spacing="0" word-spacing="0" style="line-height:0%" transform="matrix(1.6611 0 0 1.6611 -128.58 -262.12)" xml:space="preserve"><tspan x="282.725" y="403.629" font-size="10" style="line-height:1.25">SDO</tspan></text><g fill="none" stroke="#000" stroke-width="1"><path marker-end="url(#TriangleOutM)" d="m292.46 408.08v181.44" transform="matrix(1.6611 0 0 1.6611 -128.58 -262.12)"/><g><path d="m317.59 530.13 6.1607 6.1607" transform="matrix(1.6611 0 0 1.6611 -128.58 -262.12) translate(-28.214 -49.385)"/><path d="m317.59 532.13 6.1607 6.1607" transform="matrix(1.6611 0 0 1.6611 -128.58 -262.12) translate(-28.214 -49.385)"/></g></g></g><g transform="matrix(1.6611 0 0 1.6611 -276.13 -183.46)"><rect width="103.54" height="57.326" x="392.95" y="443.75" fill="none" stroke="#2e3436" stroke-linecap="square" stroke-linejoin="round" stroke-width="2"/><text x="444.732" y="463.483" fill="#000" font-family="'Liberation Sans'" font-size="10" letter-spacing="0" text-anchor="middle" word-spacing="0" style="line-height:0%" xml:space="preserve"><tspan x="444.732" y="463.483" text-align="center" style="line-height:1.25">Multifunction</tspan><tspan x="444.732" y="472.086" text-align="center" style="line-height:1.25">Counter and Compare</tspan><tspan x="444.732" y="480.689" text-align="center" style="line-height:1.25">Unit</tspan></text></g><g transform="matrix(1.6611 0 0 1.6611 -344.81 -188.26)"><rect width="49.497" height="27.274" x="434.99" y="388.69" fill="none" stroke="#2e3436" stroke-dasharray="2 4" stroke-linecap="square" stroke-linejoin="round" stroke-width="2"/><text x="438.276" y="405.903" fill="#000" font-family="'Liberation Sans'" letter-spacing="0" word-spacing="0" style="line-height:0%" xml:space="preserve"><tspan x="438.276" y="405.903" font-size="10" style="line-height:1.25">Prescaler</tspan></text></g><path fill="none" stroke="#000" stroke-width="1.661" marker-end="url(#TriangleOutM)" d="m418.85 509.59v33.558"/><path fill="none" stroke="#000" stroke-width="1.661" marker-end="url(#TriangleOutM)" d="m418.85 415.72v30.108"/><text x="408.78" y="408.551" fill="#000" font-family="'Liberation Sans'" letter-spacing="0" word-spacing="0" style="line-height:0%" xml:space="preserve"><tspan x="408.78" y="408.551" font-size="16.611" style="line-height:1.25">clk</tspan></text><path fill="none" stroke="#000" stroke-width="1.661" marker-end="url(#TriangleOutM)" d="m421.4 653.25v64.193"/><text x="427.232" y="661.831" fill="#000" font-family="'Liberation Sans'" letter-spacing="0" word-spacing="0" style="line-height:0%" xml:space="preserve"><tspan x="427.232" y="661.831" font-size="9.966" style="line-height:1.25">trigger</tspan></text><path fill="none" stroke="#000" stroke-width="1.661" marker-end="url(#TriangleOutM)" d="m573.42 760.92v33.751"/><text x="558.869" y="814.409" fill="#000" font-family="'Liberation Sans'" letter-spacing="0" word-spacing="0" style="line-height:0%" xml:space="preserve"><tspan x="558.869" y="814.409" font-size="16.611" style="line-height:1.25">sclk</tspan></text><rect width="172.04" height="39.153" x="506.7" y="470.89" fill="none" stroke="#2e3436" stroke-linecap="square" stroke-linejoin="round" stroke-width="3.322"/><text x="521.425" y="496.404" fill="#000" font-family="'Liberation Sans'" letter-spacing="0" word-spacing="0" style="line-height:0%" xml:space="preserve"><tspan x="521.425" y="496.404" font-size="16.611" style="line-height:1.25">Instruction Decoder</tspan></text><g><g fill="none" stroke="#000" stroke-width="1"><path d="m323.62 530.13 6.1607 6.1607" transform="matrix(1.6611 0 0 1.6611 -188.63 -262.12) translate(118.62 -108.22)"/><path d="m323.62 532.13 6.1607 6.1607" transform="matrix(1.6611 0 0 1.6611 -188.63 -262.12) translate(118.62 -108.22)"/></g><path fill="none" stroke="#000" stroke-width="1" marker-end="url(#TriangleOutM)" d="m445.32 408.08v28.636" transform="matrix(1.6611 0 0 1.6611 -188.63 -262.12)"/><text x="433.91" y="403.629" fill="#000" font-family="'Liberation Sans'" letter-spacing="0" word-spacing="0" style="line-height:0%" transform="matrix(1.6611 0 0 1.6611 -188.63 -262.12)" xml:space="preserve"><tspan x="433.91" y="403.629" font-size="10" style="line-height:1.25">CMD</tspan></text></g><g transform="matrix(1.6611 0 0 1.6611 -164.25 -230.61)"><rect width="57.857" height="18" x="490.71" y="576.65" fill="none" stroke="#2e3436" stroke-linecap="square" stroke-linejoin="round" stroke-width="2"/><text x="495.549" y="588.233" fill="#000" font-family="'Liberation Sans'" letter-spacing="0" word-spacing="0" style="line-height:0%" xml:space="preserve"><tspan x="495.549" y="588.233" font-size="10" style="line-height:1.25">chip-select</tspan></text></g><path fill="none" stroke="#000" stroke-width="1.661" marker-start="url(#TriangleInM)" d="m698.91 794.67v-33.751"/><text x="690.552" y="812.86" fill="#000" font-family="'Liberation Sans'" letter-spacing="0" word-spacing="0" style="line-height:0%" xml:space="preserve"><tspan x="690.552" y="812.86" font-size="16.611" style="line-height:1.25">cs</tspan></text><path fill="none" stroke="#000" stroke-width="1.661" marker-end="url(#TriangleOutM)" d="m553.43 618.61h110.58v101.32"/><text x="649.832" y="722.306" fill="#000" font-family="'Liberation Sans'" letter-spacing="0" word-spacing="0" style="line-height:0%" xml:space="preserve"><tspan x="649.832" y="722.306" font-size="6.644" style="line-height:1.25">CE</tspan></text><path fill="none" stroke="#000" stroke-width="1.661" marker-end="url(#TriangleOutM)" d="m618.13 518.97v81.811h70.338l0.22581 119.15"/><text x="678.358" y="722.166" fill="#000" font-family="'Liberation Sans'" letter-spacing="0" word-spacing="0" style="line-height:0%" xml:space="preserve"><tspan x="678.358" y="722.166" font-size="6.644" style="line-height:1.25">D</tspan></text><text x="690.596" y="766.438" fill="#000" font-family="'Liberation Sans'" letter-spacing="0" word-spacing="0" style="line-height:0%" xml:space="preserve"><tspan x="690.596" y="766.438" font-size="6.644" style="line-height:1.25">Q</tspan></text><g><path fill="none" stroke="#000" stroke-width="1" marker-end="url(#TriangleOutM)" d="m462.46 438.77v-30.694" transform="matrix(1.6611 0 0 1.6611 -164.25 -262.12)"/><text x="448.521" y="403.629" fill="#000" font-family="'Liberation Sans'" letter-spacing="0" word-spacing="0" style="line-height:0%" transform="matrix(1.6611 0 0 1.6611 -164.25 -262.12)" xml:space="preserve"><tspan x="448.521" y="403.629" font-size="10" style="line-height:1.25">SYNC</tspan></text><g fill="none" stroke="#000" stroke-width="1"><path d="m323.62 530.13 6.1607 6.1607" transform="matrix(1.6611 0 0 1.6611 -164.25 -262.12) translate(135.76 -108.22)"/><path d="m323.62 532.13 6.1607 6.1607" transform="matrix(1.6611 0 0 1.6611 -164.25 -262.12) translate(135.76 -108.22)"/></g></g><g fill="none" stroke="#000" stroke-width="1"><path marker-end="url(#TriangleOutM)" d="m416.43 469.61v16.25" transform="matrix(1.6611 0 0 1.6611 -177.12 -262.12)"/><g><path d="m323.62 530.13 6.1607 6.1607" transform="matrix(1.6611 0 0 1.6611 -177.12 -262.12) translate(89.732 -55.444)"/><path d="m323.62 532.13 6.1607 6.1607" transform="matrix(1.6611 0 0 1.6611 -177.12 -262.12) translate(89.732 -55.444)"/></g></g><path fill="none" stroke="#000" stroke-dasharray="1.661 3.322" stroke-width="1.661" marker-end="url(#TriangleOutM)" d="m502.31 492.25h-20.218v-8.3053h-15.029"/><g transform="matrix(1.6611 0 0 1.6611 282.82 -52.635)"><text x="151.67" y="482.079" fill="#000" font-family="'Liberation Sans'" letter-spacing="0" word-spacing="0" style="line-height:0%" xml:space="preserve"><tspan x="151.67" y="482.079" font-size="10" style="line-height:1.25">Clock Gen</tspan></text><rect width="59.213" height="18" x="145.34" y="469.5" fill="none" stroke="#2e3436" stroke-linecap="square" stroke-linejoin="round" stroke-width="2"/></g><path fill="none" stroke="#000" stroke-width="1.661" marker-end="url(#TriangleOutM)" d="m421.07 670.2h119.92v47.421"/><text x="407.359" y="718.927" fill="#000" font-family="'Liberation Sans'" letter-spacing="0" word-spacing="0" style="line-height:0%" xml:space="preserve"><tspan x="407.359" y="718.927" font-size="6.644" style="line-height:1.25">CE</tspan></text><text x="740.848" y="812.84" fill="#000" font-family="'Liberation Sans'" letter-spacing="0" word-spacing="0" style="line-height:0%" xml:space="preserve"><tspan x="740.848" y="812.84" font-size="16.611" style="line-height:1.25">three_wire</tspan></text><g transform="matrix(1.6611 0 0 1.6611 -339.88 -355.36)"><text x="598.768" y="555.294" fill="#000" font-family="'Liberation Sans'" letter-spacing="0" word-spacing="0" style="line-height:0%" xml:space="preserve"><tspan x="598.768" y="555.294" font-size="10" style="line-height:1.25">Config</tspan></text><rect width="43.307" height="17.302" x="592.13" y="544.06" fill="none" stroke="#2e3436" stroke-linecap="square" stroke-linejoin="round" stroke-width="2"/></g><g fill="none" stroke="#000"><path stroke-width="1.661" marker-end="url(#TriangleOutM)" d="m718.99 563.32h59.612v231.35"/><g><rect width="574.3" height="346.16" x="250.95" y="432.11" stroke-linecap="square" stroke-linejoin="round" stroke-width="4.983"/><rect width="1.277" height="0" x="190.86" y="404.01" stroke-linecap="square" stroke-linejoin="round" stroke-width="3.322"/><path stroke-dasharray="1.661 3.322" stroke-width="1.661" marker-end="url(#TriangleOutM)" d="m528.07 548.15v-27.322"/><path stroke-dasharray="1.661 3.322" stroke-width="1.661" marker-end="url(#TriangleOutM)" d="m664.75 517.35v21.715"/></g><path stroke-width="1.661" marker-end="url(#TriangleOutM)" d="m639.39 563.32h-58.483v156.03"/></g><text x="584.973" y="699.138" fill="#000" font-family="'Liberation Sans'" font-size="9.966" letter-spacing="0" word-spacing="0" style="line-height:0%" xml:space="preserve"><tspan x="584.973" y="699.138" style="line-height:1.25">cpha</tspan><tspan x="584.973" y="721.733" style="line-height:1.25">cpol</tspan></text><text x="531.498" y="537.359" fill="#000" font-family="'Liberation Sans'" letter-spacing="0" word-spacing="0" style="line-height:0%" xml:space="preserve"><tspan x="531.498" y="537.359" font-size="9.966" style="line-height:1.25">sleep_compare</tspan></text><path fill="none" stroke="#000" stroke-width="1.661" marker-end="url(#TriangleOutM)" d="m664.37 465.87v-49.088"/><text x="643.034" y="408.551" fill="#000" font-family="'Liberation Sans'" letter-spacing="0" word-spacing="0" style="line-height:0%" xml:space="preserve"><tspan x="643.034" y="408.551" font-size="16.611" style="line-height:1.25">active</tspan></text></g></svg>