<svg xmlns="http://www.w3.org/2000/svg" width="585" height="245" preserveAspectRatio="xMidYMid slice" version="1.1" viewBox="0 0 585 245"><defs><marker id="h" orient="auto" overflow="visible"><path fill-rule="evenodd" stroke="#000" stroke-width="1pt" d="m5.77 0-8.65 5v-10z" transform="scale(.4)"/></marker><marker id="i" orient="auto" overflow="visible"><path fill-rule="evenodd" stroke="#000" stroke-width="1pt" d="m5.77 0-8.65 5v-10z" transform="scale(.4)"/></marker><marker id="j" orient="auto" overflow="visible"><path fill-rule="evenodd" stroke="#000" stroke-width="1pt" d="m5.77 0-8.65 5v-10z" transform="scale(-.4)"/></marker><marker id="s" orient="auto" overflow="visible"><path fill-rule="evenodd" stroke="#000" stroke-width="1pt" d="m5.77 0-8.65 5v-10z" transform="scale(-.4)"/></marker><marker id="k" orient="auto" overflow="visible"><path fill-rule="evenodd" stroke="#000" stroke-width="1pt" d="m5.77 0-8.65 5v-10z" transform="scale(.4)"/></marker><marker id="l" orient="auto" overflow="visible"><path fill-rule="evenodd" stroke="#000" stroke-width="1pt" d="m5.77 0-8.65 5v-10z" transform="scale(.4)"/></marker><marker id="m" orient="auto" overflow="visible"><path fill-rule="evenodd" stroke="#000" stroke-width="1pt" d="m5.77 0-8.65 5v-10z" transform="scale(.4)"/></marker><marker id="n" orient="auto" overflow="visible"><path fill-rule="evenodd" stroke="#000" stroke-width="1pt" d="m5.77 0-8.65 5v-10z" transform="scale(-.2)"/></marker><marker id="a" orient="auto" overflow="visible"><path fill-rule="evenodd" stroke="#000" stroke-width="1pt" d="m5.77 0-8.65 5v-10z" transform="scale(-.2)"/></marker><marker id="b" orient="auto" overflow="visible"><path fill-rule="evenodd" stroke="#000" stroke-width="1pt" d="m5.77 0-8.65 5v-10z" transform="scale(.2)"/></marker><marker id="c" orient="auto" overflow="visible"><path fill-rule="evenodd" stroke="#000" stroke-width="1pt" d="m5.77 0-8.65 5v-10z" transform="scale(.2)"/></marker><marker id="p" orient="auto" overflow="visible"><path fill-rule="evenodd" stroke="#000" stroke-width="1pt" d="m5.77 0-8.65 5v-10z" transform="scale(.2)"/></marker><marker id="r" orient="auto" overflow="visible"><path fill-rule="evenodd" stroke="#000" stroke-width="1pt" d="m5.77 0-8.65 5v-10z" transform="scale(-.2)"/></marker><marker id="d" orient="auto" overflow="visible"><path fill-rule="evenodd" stroke="#000" stroke-width="1pt" d="m5.77 0-8.65 5v-10z" transform="scale(.4)"/></marker><marker id="e" orient="auto" overflow="visible"><path fill-rule="evenodd" stroke="#000" stroke-width="1pt" d="m5.77 0-8.65 5v-10z" transform="scale(.4)"/></marker><marker id="f" orient="auto" overflow="visible"><path fill-rule="evenodd" stroke="#000" stroke-width="1pt" d="m5.77 0-8.65 5v-10z" transform="scale(.4)"/></marker><marker id="g" orient="auto" overflow="visible"><path fill-rule="evenodd" stroke="#000" stroke-width="1pt" d="m5.77 0-8.65 5v-10z" transform="scale(.4)"/></marker><marker id="q" orient="auto" overflow="visible"><path fill-rule="evenodd" stroke="#000" stroke-width="1pt" d="m5.77 0-8.65 5v-10z" transform="scale(.4)"/></marker><linearGradient id="o" x1="88.359" x2="117.89" y1="88.837" y2="88.837" gradientUnits="userSpaceOnUse"><stop offset="0" stop-color="#fce94f"/><stop offset="1" stop-color="#729fcf"/></linearGradient></defs><g transform="matrix(4 0 0 4 -117.17 -304.15)"><rect width="97.349" height="53.988" x="54.052" y="76.302" fill="#d3d7cf" fill-rule="evenodd" stroke="#000" stroke-width=".529"/><rect width="28.324" height="8.686" x="120.14" y="118.32" fill="#fcaf3e" fill-rule="evenodd" stroke="#000" stroke-width=".529"/><g transform="translate(-.53474 -.4009)"><rect width="28.999" height="12.428" x="88.624" y="82.623" fill="url(#o)" fill-rule="evenodd" stroke="#000" stroke-width=".529"/><text x="103.003" y="88.129" fill="#000" stroke-width=".265" font-family="'Liberation Sans'" font-size="2.646" letter-spacing="0" text-anchor="middle" word-spacing="0" style="line-height:125%" xml:space="preserve"><tspan x="103.003" y="88.129" text-align="center">Store-and-forward</tspan><tspan x="103.003" y="91.436" text-align="center">Data Buffer</tspan></text></g><g stroke-width=".265" font-family="'Liberation Sans'" font-size="2.646" letter-spacing="0" word-spacing="0"><text x="126.375" y="123.347" style="line-height:125%" xml:space="preserve"><tspan x="126.375" y="123.347" stroke-width=".265">Register Map</tspan></text><text x="119.47" y="135.429" style="line-height:125%" xml:space="preserve"><tspan x="119.47" y="135.429" stroke-width=".265">S_AXI</tspan></text><text x="129.225" y="135.499" style="line-height:125%" xml:space="preserve"><tspan x="129.225" y="135.499" stroke-width=".265">s_axi_aclk</tspan></text><text x="144.326" y="135.499" style="line-height:125%" xml:space="preserve"><tspan x="144.326" y="135.499" stroke-width=".265">irq</tspan></text></g><g transform="translate(-2.3947 -.19646)"><rect width="22.985" height="8.686" x="92.956" y="118.52" fill="#ad7fa8" fill-rule="evenodd" stroke="#000" stroke-width=".529"/><text x="95.549" y="123.542" fill="#000" stroke-width=".265" font-family="'Liberation Sans'" font-size="2.646" letter-spacing="0" word-spacing="0" style="line-height:125%" xml:space="preserve"><tspan x="95.549" y="123.542" stroke-width=".265">Transfer queue</tspan></text></g><g transform="translate(-.00019488 -.8367)"><rect width="18.041" height="16.704" x="59.148" y="80.92" fill="#fce94f" fill-rule="evenodd" stroke="#000" stroke-width=".529"/><text x="68.106" y="86.876" fill="#000" stroke-width=".265" font-family="'Liberation Sans'" font-size="2.646" letter-spacing="0" text-anchor="middle" word-spacing="0" style="line-height:125%" xml:space="preserve"><tspan x="68.106" y="86.876" text-align="center">Source</tspan><tspan x="68.106" y="90.183" text-align="center">Data</tspan><tspan x="68.106" y="93.491" text-align="center">Interface</tspan></text></g><g transform="translate(68.822 -.8367)"><rect width="18.041" height="16.704" x="59.148" y="80.92" fill="#729fcf" fill-rule="evenodd" stroke="#000" stroke-width=".529"/><text x="68.106" y="86.911" fill="#000" stroke-width=".265" font-family="'Liberation Sans'" font-size="2.646" letter-spacing="0" text-anchor="middle" word-spacing="0" style="line-height:125%" xml:space="preserve"><tspan x="68.106" y="86.911" text-align="center">Destination</tspan><tspan x="68.106" y="90.218" text-align="center">Data</tspan><tspan x="68.106" y="93.526" text-align="center">Interface</tspan></text></g><g fill="none" stroke="#000"><g stroke-width=".8"><path marker-end="url(#q)" d="m77.909 88.436h7.0159"/><path marker-end="url(#g)" d="m117.73 88.436h7.0159"/><path marker-end="url(#f)" d="m146.6 91.838h7.0159"/><path marker-end="url(#e)" d="m49.178 92.405h7.0159"/></g><path stroke-width=".794" marker-end="url(#p)" marker-start="url(#r)" d="m122.86 128.82v3.1851"/><g stroke-width=".794"><path stroke-linecap="square" marker-end="url(#c)" d="m135.05 132.81v-4.154"/><path stroke-linecap="square" marker-end="url(#b)" d="m145.92 128.22v4.2876"/><path marker-start="url(#a)" d="m115.81 122.66h3.0711"/></g></g><text x="156.62" y="89.126" fill="#000" stroke-width=".265" font-family="'Liberation Sans'" font-size="2.646" letter-spacing="0" word-spacing="0" style="line-height:125%" xml:space="preserve"><tspan x="156.62" y="89.126">AXI-MM /</tspan><tspan x="156.62" y="92.433">AXI-Streaming /</tspan><tspan x="156.62" y="95.74">FIFO</tspan></text><text x="29.533" y="89.692" fill="#000" stroke-width=".265" font-family="'Liberation Sans'" font-size="2.646" letter-spacing="0" word-spacing="0" style="line-height:125%" xml:space="preserve"><tspan x="29.533" y="89.692">AXI-MM /</tspan><tspan x="29.533" y="93">AXI-Streaming /</tspan><tspan x="29.533" y="96.307">FIFO</tspan></text><rect width="24.856" height="13.497" x="89.669" y="99.087" fill="#ad7fa8" fill-rule="evenodd" stroke="#000" stroke-linecap="square" stroke-width=".529"/><path fill="none" stroke="#000" stroke-width=".794" marker-start="url(#n)" d="m102.51 114.56v3.0711"/><g stroke-width=".265"><text x="102.077" y="105.101" fill="#000" font-family="'Liberation Sans'" font-size="2.646" letter-spacing="0" text-anchor="middle" word-spacing="0" style="line-height:125%" xml:space="preserve"><tspan x="102.077" y="105.101" text-align="center">Transfer</tspan><tspan x="102.077" y="108.408" text-align="center">management</tspan></text><path fill="none" stroke="#000" marker-end="url(#d)" d="m123.27 117.71v-7.2403h-7.2761"/><text x="116.816" y="112.558" fill="#000" font-family="'Liberation Sans'" font-size="2.646" letter-spacing="0" word-spacing="0" style="line-height:125%" xml:space="preserve"><tspan x="116.816" y="112.558" stroke-width=".265" font-size="1.764">Control</tspan></text><path fill="none" stroke="#000" marker-end="url(#m)" d="m115.18 108.44h10.307v8.6624"/><text x="116.842" y="107.682" fill="#000" font-family="'Liberation Sans'" font-size="2.646" letter-spacing="0" word-spacing="0" style="line-height:125%" xml:space="preserve"><tspan x="116.842" y="107.682" stroke-width=".265" font-size="1.764">Status</tspan></text><path fill="none" stroke="#000" marker-end="url(#k)" d="m115.73 103.36h21.6v-5.2118"/><path fill="none" stroke="#000" marker-end="url(#l)" d="m88.565 103.36h-20.747v-5.2118"/><text x="119.126" y="105.234" fill="#000" font-family="'Liberation Sans'" font-size="2.646" letter-spacing="0" word-spacing="0" style="line-height:125%" xml:space="preserve"><tspan x="119.126" y="105.234" stroke-width=".265" font-size="1.764">Transfer request</tspan></text><text x="72.363" y="105.234" fill="#000" font-family="'Liberation Sans'" font-size="2.646" letter-spacing="0" word-spacing="0" style="line-height:125%" xml:space="preserve"><tspan x="72.363" y="105.234" stroke-width=".265" font-size="1.764">Transfer request</tspan></text><path fill="none" stroke="#000" marker-start="url(#s)" d="m87.931 101.49h-17.974v-3.8754"/><text x="71.71" y="100.624" fill="#000" font-family="'Liberation Sans'" font-size="2.646" letter-spacing="0" word-spacing="0" style="line-height:125%" xml:space="preserve"><tspan x="71.71" y="100.624" stroke-width=".265" font-size="1.764">Transfer response</tspan></text><path fill="none" stroke="#000" marker-start="url(#j)" d="m116.48 101.49h17.974v-3.8754"/><text x="118.472" y="100.624" fill="#000" font-family="'Liberation Sans'" font-size="2.646" letter-spacing="0" word-spacing="0" style="line-height:125%" xml:space="preserve"><tspan x="118.472" y="100.624" stroke-width=".265" font-size="1.764">Transfer response</tspan></text></g><path fill="none" stroke="#000" stroke-width=".529" marker-end="url(#i)" d="m49.947 84.609h7.0159"/><text x="41.117" y="85.428" fill="#000" stroke-width=".265" font-family="'Liberation Sans'" font-size="2.646" letter-spacing="0" word-spacing="0" style="line-height:125%" xml:space="preserve"><tspan x="41.117" y="85.428" stroke-width=".265">src_clk</tspan></text><path fill="none" stroke="#000" stroke-width=".529" marker-end="url(#h)" d="m155.32 84.042h-7.0159"/><text x="155.829" y="84.861" fill="#000" stroke-width=".265" font-family="'Liberation Sans'" font-size="2.646" letter-spacing="0" word-spacing="0" style="line-height:125%" xml:space="preserve"><tspan x="155.829" y="84.861" stroke-width=".265">dest_clk</tspan></text></g></svg>